PathFileType	4	(X/Y/Z)	D:\Documents\my_script\MATLAB\opensim\convert_file_format\tsv_to_trc\CE_8km_M.tsv
DataRate	CameraRate	NumFrames	NumMarkers	Units	OrigDataRate	OrigDataStartFrame	OrigNumFrames
200	200	20	23	mm	200	4399	200
Frame#	Time	Top.Head			L.Acromium			R.Acromium			Sternum			L.ASIS			R.ASIS			V.Sacral			L.Knee.Lat			L.Knee.Med			L.Ankle.Lat			L.Ankle.Med			L.Heel			L.Toe.Lat			L.Toe.Med			L.Toe.Tip			R.Knee.Lat			R.Knee.Med			R.Ankle.Lat			R.Ankle.Med			R.Heel			R.Toe.Lat			R.Toe.Med			R.Toe.Tip		
		X1	Y1	Z1	X2	Y2	Z2	X3	Y3	Z3	X4	Y4	Z4	X5	Y5	Z5	X6	Y6	Z6	X7	Y7	Z7	X8	Y8	Z8	X9	Y9	Z9	X10	Y10	Z10	X11	Y11	Z11	X12	Y12	Z12	X13	Y13	Z13	X14	Y14	Z14	X15	Y15	Z15	X16	Y16	Z16	X17	Y17	Z17	X18	Y18	Z18	X19	Y19	Z19	X20	Y20	Z20	X21	Y21	Z21	X22	Y22	Z22	X23	Y23	Z23
4599	22.99	-49.075	1673.459	402.9	167.479	1397.631	382.207	-229.658	1361.69	388.743	-18.044	1332.153	482.289	152.851	881.15	407.393	-138.68	904.279	400.82	12.733	940.565	219.811	180.583	428.187	298.375	56.139	384.212	284.885	156.349	291.292	-52.451	72.126	247.166	-34.735	84.636	352.211	-121.919	192.764	181.379	-105.995	96.709	130.385	-77.578	156.32	86.646	-63.758	-148.68	456.727	477.017	-7.371	439.259	490.923	-74.113	91.393	363.8	13.035	108.082	402.942	-10.774	43.283	281.576	-123.254	38.455	478.031	-16.085	34.339	508.61	-71.36	50.354	548.094
4600	22.995	-49.267	1671.88	402.7	167.164	1396.655	380.969	-230.036	1359.315	389.226	-17.771	1330.693	481.793	152.922	880.081	405.726	-139.067	902.516	400.424	12.363	939.453	219.595	180.897	425.799	305.4	56.154	382.084	292.077	156.137	292.174	-45.077	71.525	248.294	-28.509	85.125	352.95	-115.993	193.102	182.184	-97.574	96.697	131.264	-70.566	156.087	87.62	-55.618	-149.608	453.751	471.641	-8.623	435.898	487.497	-73.769	91.673	353.432	13.591	107.835	392.879	-10.382	43.697	270.945	-123.463	38.88	467.362	-16.03	34.092	498.286	-71.312	49.907	537.476
4601	23	-49.428	1670.645	402.513	166.96	1395.992	379.495	-230.37	1357.278	389.88	-17.432	1329.577	481.288	153.043	879.383	403.93	-139.203	901.008	400.159	11.814	938.727	219.457	181.12	423.696	312.419	56.206	380.198	299.419	155.883	292.75	-37.429	70.912	249.168	-21.811	85.871	353.178	-109.889	193.345	182.527	-88.58	96.602	131.82	-62.792	155.752	88.256	-46.636	-150.359	451.077	465.962	-9.678	432.82	482.74	-73.444	91.966	342.974	14.091	107.671	382.749	-9.99	44.156	260.234	-123.638	39.274	456.61	-15.966	33.906	487.903	-71.249	49.488	526.78
4602	23.005	-49.54	1669.739	402.321	166.798	1395.613	377.764	-230.652	1355.551	390.754	-16.953	1328.763	480.751	153.191	878.966	402.081	-139.168	899.848	399.97	10.254	938.394	219.071	181.186	421.951	319.336	56.26	378.598	306.935	155.609	292.936	-29.564	70.3	249.738	-14.704	86.565	352.873	-103.657	193.618	182.38	-79.09	96.437	131.954	-54.301	155.328	88.532	-36.89	-150.939	448.8	460.172	-10.669	430.4	478.485	-73.174	92.296	332.451	14.51	107.615	372.512	-9.638	44.657	249.442	-123.846	39.701	445.785	-15.903	33.771	477.444	-71.178	49.067	516.002
4603	23.01	-49.627	1669.217	402.188	166.723	1395.548	375.788	-230.831	1354.117	391.881	-16.266	1328.244	480.193	153.314	878.774	400.241	-139.078	899.086	399.758	8.682	938.307	218.612	181.147	420.638	326.235	56.265	377.351	314.53	155.331	292.756	-21.508	69.696	249.966	-7.22	87.16	352.008	-97.311	193.783	181.753	-69.165	96.205	131.687	-45.118	154.822	88.466	-26.418	-151.383	446.955	454.353	-11.367	428.518	473.556	-72.958	92.682	321.861	14.846	107.66	362.218	-9.33	45.23	238.585	-123.842	39.76	434.802	-15.754	33.568	466.626	-71.114	48.668	505.164
4604	23.015	-49.657	1668.984	402.075	166.554	1395.76	373.545	-231.014	1353.011	393.365	-15.439	1328.041	479.631	153.374	878.773	398.435	-139.037	898.711	399.427	6.911	938.459	217.946	180.906	419.798	333.063	56.164	376.52	322.119	155.033	292.172	-13.327	69.104	249.839	0.618	87.711	350.53	-90.852	193.837	180.649	-58.864	95.88	131.023	-35.279	154.244	88.046	-15.271	-151.716	445.505	448.533	-11.789	427.063	468.217	-72.773	93.122	311.229	15.118	107.801	351.855	-9.071	45.914	227.668	-123.812	39.784	423.738	-15.62	33.421	455.726	-71.063	48.298	494.261
4605	23.02	-49.584	1669.132	401.999	166.334	1396.329	371.082	-231.145	1352.305	395.137	-14.446	1328.193	479.052	153.35	878.959	396.715	-139.034	898.672	398.973	5.606	938.818	216.947	180.607	419.525	339.851	55.981	376.229	329.746	154.705	291.177	-5.032	68.52	249.34	8.788	88.408	348.438	-84.279	193.77	179.047	-48.211	95.463	129.98	-24.805	153.585	87.288	-3.486	-151.975	444.389	442.647	-11.894	425.87	461.93	-72.628	93.65	300.582	15.32	108.065	341.482	-8.801	46.64	216.734	-123.785	39.801	412.653	-15.557	33.306	444.704	-71.025	47.967	483.314
4606	23.025	-49.506	1669.55	401.984	165.998	1397.223	368.434	-231.275	1351.859	397.153	-13.374	1328.56	478.469	153.232	879.405	395.109	-139.16	898.961	398.375	4.53	939.374	215.931	180.12	419.821	346.603	55.71	376.503	337.377	154.33	289.763	3.346	67.935	248.459	17.259	88.729	345.728	-77.645	193.604	176.972	-37.24	95	128.487	-13.775	152.859	86.198	8.894	-152.259	443.487	436.43	-11.902	424.96	455.841	-72.521	94.245	289.881	15.472	108.402	331.04	-8.777	47.443	205.755	-123.768	39.814	401.54	-15.514	33.233	433.627	-70.983	47.657	472.297
4607	23.03	-49.401	1670.351	402.058	165.613	1398.399	365.615	-231.39	1351.795	399.429	-12.238	1329.26	477.889	152.983	880.088	393.672	-139.398	899.506	397.68	3.635	940.194	214.937	179.595	420.753	353.343	53.295	378.293	344.194	153.912	287.936	11.812	67.352	247.197	26.041	88.986	342.389	-70.92	193.409	174.451	-25.888	94.442	126.619	-2.19	152.068	84.826	21.856	-152.495	442.721	429.913	-11.873	424.109	448.863	-72.443	94.875	279.14	15.564	108.85	320.587	-9.057	48.315	194.649	-123.738	39.798	390.398	-15.468	33.185	422.501	-70.952	47.416	461.228
4608	23.035	-49.258	1671.484	402.177	165.111	1399.866	362.666	-231.528	1352.123	401.926	-11.102	1330.306	477.313	152.554	881.033	392.383	-139.79	900.286	396.896	2.881	941.292	213.986	179.097	422.258	360.037	50.623	380.724	350.947	153.464	285.704	20.369	66.758	245.564	35.083	89.171	338.399	-64.098	193.086	171.492	-14.259	93.787	124.424	9.92	151.202	83.174	35.354	-152.669	442.031	423.03	-11.63	423.355	438.447	-72.33	95.544	268.444	15.624	109.328	310.037	-9.1	49.299	183.631	-123.728	39.787	379.224	-15.43	33.203	411.334	-70.924	47.222	450.116
4609	23.04	-49.065	1672.958	402.35	164.559	1401.604	359.639	-231.869	1353.023	404.52	-10.397	1331.748	476.892	152.035	882.255	391.251	-140.283	901.242	396.083	2.246	942.659	213.098	178.709	424.351	366.732	47.914	383.8	357.644	152.983	283.052	29.02	66.157	243.551	44.389	89.221	333.796	-57.176	192.269	168.119	-2.513	93.049	121.917	22.569	150.236	81.272	49.34	-152.687	441.48	415.876	-11.307	422.808	427.962	-72.252	96.272	257.725	15.631	109.919	299.527	-9.147	50.352	172.606	-123.726	39.766	368.03	-15.384	33.224	400.14	-70.898	47.028	438.966
4610	23.045	-48.894	1674.673	402.554	163.984	1403.572	356.581	-232.017	1354.376	407.13	-10.433	1333.627	476.713	151.445	883.806	390.254	-140.903	902.365	395.277	1.673	944.27	212.259	178.422	426.971	373.356	46.964	386.332	367.841	152.159	279.964	37.712	65.523	241.185	53.938	89.193	328.576	-50.137	191.443	164.398	9.591	92.246	119.074	35.672	149.224	79.166	63.861	-152.598	441.116	408.307	-11.618	421.91	422.394	-72.18	97.033	246.982	15.62	110.538	288.926	-9.45	51.463	161.461	-123.735	39.736	356.798	-15.361	33.263	388.912	-70.87	46.863	427.769
4611	23.05	-48.636	1676.623	402.734	163.394	1405.768	353.549	-231.944	1356.222	409.683	-11.178	1336.009	476.748	150.712	885.659	389.353	-141.539	903.634	394.551	1.085	946.153	211.484	178.08	430.001	379.832	45.911	389.353	377.904	151.254	276.48	46.534	64.869	238.498	63.734	89.103	322.741	-42.944	190.475	160.321	22.037	91.341	116.005	49.259	148.069	76.863	78.826	-152.318	440.983	400.492	-11.933	421.199	416.765	-72.114	97.852	236.238	15.585	111.238	278.338	-9.564	52.68	150.308	-123.734	39.692	345.546	-15.316	33.321	377.635	-70.844	46.72	416.539
4612	23.055	-48.342	1678.763	402.916	162.993	1408.109	350.655	-231.847	1358.964	411.793	-12.575	1338.772	476.97	150.016	887.785	388.504	-142.165	905.046	393.897	0.526	948.275	210.787	177.714	433.361	386.079	46.994	391.791	388.625	150.276	272.608	55.496	64.171	235.496	73.751	88.914	316.311	-35.582	189.341	155.923	34.767	90.378	112.723	63.329	146.915	74.475	94.307	-151.906	441.121	392.336	-12.193	420.623	411.155	-72.065	98.77	225.495	15.536	112.012	267.744	-9.197	54.067	139.355	-123.733	39.672	334.278	-15.271	33.4	366.32	-70.799	46.588	405.276
4613	23.06	-48.021	1681.108	403.106	162.667	1410.596	347.837	-231.569	1362.444	413.64	-14.205	1341.83	477.254	149.388	890.196	387.704	-142.71	906.559	393.357	-0.046	950.591	210.172	177.308	437.006	392.042	48.572	394.463	398.221	149.202	268.393	64.602	63.453	232.211	84.016	88.637	309.299	-28.028	188.569	151.282	48.033	89.344	109.239	77.744	145.685	72.01	110.188	-151.381	441.594	383.873	-12.687	420.156	408.908	-72.1	99.777	214.718	15.47	112.873	257.149	-9.063	55.569	128.322	-123.709	39.639	322.993	-15.216	33.478	354.975	-70.742	46.478	393.98
4614	23.065	-48.571	1683.157	403.638	162.469	1413.243	345.122	-230.552	1365.322	415.509	-14.972	1344.942	477.295	148.725	892.837	386.907	-143.158	908.201	392.934	-0.703	953.118	209.63	176.917	440.851	397.695	50.506	397.283	406.555	148.028	263.833	73.886	62.692	228.66	94.519	88.287	301.741	-20.231	188.127	146.377	61.865	88.326	105.646	92.503	144.442	69.52	126.553	-150.912	442.393	374.861	-13.313	419.689	406.212	-72.17	100.862	203.951	15.381	113.741	246.269	-8.786	57.333	117.333	-123.673	39.616	311.703	-15.16	33.6	343.618	-70.65	46.381	382.661
4615	23.07	-49.107	1685.358	404.192	162.373	1415.967	342.548	-229.364	1368.51	417.25	-14.933	1348.054	477.127	148.158	895.702	386.125	-143.462	909.945	392.632	-1.453	955.822	209.139	176.471	444.86	403.012	50.69	401.367	410.936	147.106	258.979	83.424	61.921	224.858	105.27	87.855	293.651	-12.158	187.695	141.301	76.126	87.249	101.955	107.579	143.083	67.028	143.301	-150.39	443.502	365.665	-13.279	419.911	398.349	-72.298	102.056	193.219	15.231	114.752	235.445	-8.304	59.365	106.399	-123.621	39.58	300.411	-15.098	33.742	332.199	-70.484	46.303	371.355
4616	23.075	-50.617	1687.714	405.471	162.321	1418.779	340.063	-228.065	1371.458	419.181	-13.991	1351.129	476.729	147.739	898.728	385.349	-143.614	911.768	392.437	-2.249	958.7	208.726	176.267	449.071	408.023	50.979	405.618	414.951	146.193	253.841	93.188	61.098	220.858	116.192	87.315	285.072	-3.78	186.897	136.278	92.451	86.136	98.221	123.271	141.968	64.688	160.508	-149.839	444.904	356.353	-12.141	421.354	385.37	-72.49	103.371	182.566	15.023	115.907	224.632	-7.921	61.679	95.544	-123.562	39.56	289.126	-15.017	33.93	320.787	-70.297	46.237	360.037
4617	23.08	-51.158	1690.169	406.094	162.183	1421.701	337.627	-226.291	1374.701	421.126	-12.277	1354.18	476.15	147.342	901.936	384.589	-143.629	913.674	392.35	-3.084	961.714	208.407	176.151	453.43	412.763	51.232	410.092	418.536	145.277	248.47	103.179	60.286	216.631	127.466	86.493	276.026	4.919	186.051	131.195	109.226	85.018	94.502	139.454	140.757	62.399	178.121	-149.309	446.582	347.026	-10.923	423.13	372.12	-72.756	104.808	172.015	14.418	117.755	216.229	-7.806	64.268	84.668	-123.492	39.525	277.861	-14.931	34.148	309.378	-70.09	46.177	348.72
4618	23.085	-52.602	1692.668	407.375	162.052	1424.695	335.301	-224.327	1377.285	423.365	-10.114	1357.241	475.492	146.983	905.286	383.831	-143.515	915.65	392.351	-3.972	964.893	208.163	176.099	457.914	417.233	51.21	414.746	422.688	144.762	242.867	113.5	59.461	212.211	139.016	85.485	266.593	13.999	185.081	125.839	124.522	83.929	90.796	156.123	139.612	60.267	196.142	-148.73	448.517	337.929	-9.598	425.316	358.603	-73.11	106.391	161.556	13.704	119.887	208.297	-7.804	67.172	73.863	-123.429	39.514	266.594	-14.845	34.401	297.989	-69.879	46.135	337.399
